 <svg width="100%" height="94" viewBox="0 0 1920 94" fill="none" xmlns="http://www.w3.org/2000/svg">
<path d="M0 42.015L32 42.4365C64 42.9985 128 43.8415 192 36.8165C256 29.7915 320 14.8985 384 14.8985C448 14.8985 512 29.7915 576 39.6265C640 49.4615 704 54.2385 768 50.8665C832 47.635 896 36.395 960 31.4775C1024 26.56 1088 27.965 1152 21.9235C1216 15.7415 1280 2.25351 1344 0.286513C1408 -1.53999 1472 8.29501 1536 19.1135C1600 29.7915 1664 41.5935 1728 47.354C1792 53.255 1856 53.255 1888 53.255H1920V95.405H1888C1856 95.405 1792 95.405 1728 95.405C1664 95.405 1600 95.405 1536 95.405C1472 95.405 1408 95.405 1344 95.405C1280 95.405 1216 95.405 1152 95.405C1088 95.405 1024 95.405 960 95.405C896 95.405 832 95.405 768 95.405C704 95.405 640 95.405 576 95.405C512 95.405 448 95.405 384 95.405C320 95.405 256 95.405 192 95.405C128 95.405 64 95.405 32 95.405H0V42.015Z" fill="#A4BBA9"/>
</svg>