<svg width="50" height="51" viewBox="0 0 50 51" fill="none" xmlns="http://www.w3.org/2000/svg">
<circle cx="25" cy="26" r="25" fill="white"/>
<path fill-rule="evenodd" clip-rule="evenodd" d="M25 0C11.1947 0 0 11.4756 0 25.633C0 36.9579 7.16326 46.5662 17.0965 49.9556C18.3459 50.1929 18.8046 49.3996 18.8046 48.7226C18.8046 48.1117 18.7815 46.0921 18.7707 43.9502C11.8157 45.5008 10.3481 40.9259 10.3481 40.9259C9.21085 37.9635 7.57228 37.1752 7.57228 37.1752C5.30403 35.5843 7.74326 35.617 7.74326 35.617C10.2537 35.7978 11.5756 38.2589 11.5756 38.2589C13.8053 42.1772 17.424 41.0443 18.8506 40.3893C19.0754 38.733 19.7229 37.6018 20.4378 36.9617C14.885 36.314 9.04774 34.1156 9.04774 24.2938C9.04774 21.4957 10.0243 19.2086 11.6236 17.4135C11.364 16.7679 10.5083 14.1608 11.8662 10.63C11.8662 10.63 13.9655 9.94155 18.7425 13.2579C20.7367 12.69 22.8754 12.4052 25 12.395C27.1246 12.4052 29.2649 12.69 31.2628 13.2579C36.0345 9.94155 38.1309 10.63 38.1309 10.63C39.4917 14.1608 38.636 16.7679 38.3764 17.4135C39.9794 19.2086 40.9489 21.4957 40.9489 24.2938C40.9489 34.1394 35.1005 36.3068 29.5336 36.9413C30.4303 37.7368 31.2293 39.2967 31.2293 41.6882C31.2293 45.1179 31.2007 47.8783 31.2007 48.7226C31.2007 49.4051 31.6503 50.204 32.9175 49.9527C42.8458 46.5594 50 36.9545 50 25.633C50 11.4756 38.807 0 25 0Z" fill="#A4BBA9"/>
</svg>
