<svg width="50" height="50" viewBox="0 0 50 50" fill="none" xmlns="http://www.w3.org/2000/svg">
<circle cx="25" cy="25" r="25" fill="#A4BBA9"/>
<path fill-rule="evenodd" clip-rule="evenodd" d="M18.7254 9.98022H31.7689C33.3005 10.0296 36.7195 10.662 38.1424 12.7964C38.867 13.6528 40.3064 16.0968 40.2669 19.0217C40.2274 21.9466 40.2504 28.6726 40.2669 31.6699C40.2669 34.305 38.5871 39.6838 31.8677 40.1186H17.8855C15.3657 39.9539 10.2175 38.1324 9.78271 32.164V18.083C9.76624 15.5138 11.5317 10.2964 18.7254 9.98022ZM17.8855 12.8952H31.2748C33.3005 12.747 37.3618 13.7451 37.4013 18.9229V31.6205C37.4013 33.3992 36.3045 37.0158 31.9171 37.253H18.7254C16.7327 37.3024 12.7175 36.245 12.5989 31.6205V18.1818C12.7636 16.5349 14.0515 13.1719 17.8855 12.8952Z" fill="white"/>
<circle cx="33.1028" cy="16.9961" r="1.58103" fill="white"/>
<path fill-rule="evenodd" clip-rule="evenodd" d="M24.9506 32.9051C29.3438 32.9051 32.9052 29.3438 32.9052 24.9506C32.9052 20.5574 29.3438 16.996 24.9506 16.996C20.5575 16.996 16.9961 20.5574 16.9961 24.9506C16.9961 29.3438 20.5575 32.9051 24.9506 32.9051ZM25.0495 30.2372C27.9692 30.2372 30.3361 27.8703 30.3361 24.9506C30.3361 22.0309 27.9692 19.664 25.0495 19.664C22.1298 19.664 19.7629 22.0309 19.7629 24.9506C19.7629 27.8703 22.1298 30.2372 25.0495 30.2372Z" fill="white"/>
</svg>
