<svg width="287" height="114" viewBox="0 0 287 114" fill="none" xmlns="http://www.w3.org/2000/svg">
<path d="M62.64 17.04L63.44 12.88C63.52 12.4 63.2 12 62.8 11.92C62.4 11.84 62 12.16 61.92 12.56L60.96 17.52C60.56 17.68 60.16 17.76 59.76 17.92C55.92 19.28 52.72 21.28 50.64 23.52C48.24 26.16 47.44 29.12 48.32 32.16C48.48 32.56 48.88 32.8 49.36 32.64C49.76 32.56 50 32.08 49.84 31.68C48.08 25.92 54.32 21.44 60.24 19.36C60.4 19.36 60.56 19.28 60.72 19.28L54.8 52C52.96 52 51.12 51.76 49.44 51.28C49.04 51.2 48.64 51.44 48.48 51.84C48.4 52.24 48.64 52.72 49.04 52.8C50.72 53.28 52.56 53.52 54.56 53.6L49.76 80.16C49.68 80.64 50 81.04 50.4 81.12C50.48 81.12 50.48 81.12 50.56 81.12C50.88 81.12 51.2 80.8 51.28 80.48L56.16 53.52C58.88 53.36 61.68 52.72 64.56 51.68C69.84 49.68 74.72 46.48 78.32 42.48C80.96 39.6 82.8 36.48 83.68 33.36C84.72 29.84 84.56 26.4 83.28 23.2C80.48 16.32 71.12 14.96 62.64 17.04ZM77.2 41.44C71.68 47.44 63.68 51.36 56.4 51.92L62.4 18.72C66.16 17.76 70 17.44 73.28 18C76.32 18.48 80.24 19.84 81.84 23.76C84.88 31.36 80.24 38.08 77.2 41.44ZM93.6313 49.84C93.2313 49.6 92.7513 49.68 92.5113 50.08C90.8313 52.96 87.7913 56.96 86.2713 56.96C86.0313 56.96 85.8713 56.88 85.7113 56.72C84.9113 55.84 84.7513 53.52 84.8313 52.24C84.8313 51.84 84.5913 51.52 84.1913 51.44C83.8713 51.36 83.4713 51.52 83.3113 51.84C82.4313 53.92 80.4313 56.72 79.1512 56.4C79.0712 56.32 78.9112 55.6 79.3912 54.16C80.1113 51.92 81.6313 50 82.7513 49.84C82.9113 49.84 83.4713 49.76 84.1113 50.72C84.3513 51.04 84.8313 51.12 85.2313 50.88C85.5513 50.64 85.6313 50.16 85.3913 49.76C84.1113 48 82.7513 48.16 82.0313 48.4C79.4712 49.28 77.3913 53.68 77.5512 56C77.5512 57.44 78.4312 57.84 78.7512 57.92C78.9912 58 79.1512 58 79.3912 58C80.9913 58 82.4313 56.4 83.3913 54.96C83.5513 56 83.8713 57.04 84.5113 57.76C84.9913 58.24 85.6313 58.48 86.2713 58.48C89.1513 58.48 93.1513 52.16 93.8713 50.88C94.1113 50.48 93.9513 50 93.6313 49.84ZM111.889 50C111.569 49.76 111.089 49.84 110.769 50.16C104.769 58.24 102.689 58.24 102.209 58C101.889 57.84 101.009 57.12 101.169 52.8C101.329 50.32 101.809 48 101.809 47.92C101.889 47.52 101.649 47.2 101.249 47.04C100.929 46.96 100.529 47.12 100.289 47.44C98.1294 51.76 94.8494 56.4 93.4094 56.4C93.2494 56.4 93.2494 56.4 93.2494 56.32C92.6094 55.52 93.4894 51.84 94.5294 48.96C94.6894 48.56 94.5294 48.08 94.1294 48C93.7294 47.84 93.2494 48 93.0894 48.4C92.6894 49.52 90.6094 55.28 91.9694 57.2C92.2894 57.68 92.7694 58 93.4094 58C94.3694 58 95.9694 57.44 98.9294 52.96C99.1694 52.48 99.4894 52.08 99.7294 51.68C99.6494 52 99.6494 52.4 99.6494 52.72C99.4094 56.56 100.049 58.72 101.569 59.44C101.889 59.52 102.209 59.6 102.529 59.6C104.689 59.6 107.729 56.88 112.049 51.12C112.289 50.8 112.209 50.32 111.889 50ZM117.451 25.36C120.491 22.48 123.051 17.2 122.331 15.28C122.091 14.72 121.531 14.4 120.971 14.4C119.931 14.4 119.131 15.36 118.171 17.68C117.531 19.36 116.731 21.92 115.931 25.12C114.491 30.56 112.971 38.08 111.291 47.52C108.411 63.6 106.091 79.92 106.091 80.08C106.011 80.48 106.331 80.88 106.731 80.96C106.811 80.96 106.811 80.96 106.891 80.96C107.211 80.96 107.611 80.72 107.611 80.32C107.691 80.16 109.851 64.4 112.651 48.56C114.331 39.28 115.851 31.84 117.211 26.4C117.291 26 117.371 25.68 117.451 25.36ZM120.891 16C120.891 16.48 120.731 17.6 119.851 19.36C119.451 20.16 118.971 21.04 118.411 21.76C119.771 17.44 120.571 16.32 120.891 16ZM117.697 59.12C117.937 59.28 118.257 59.36 118.497 59.36C119.537 59.36 120.657 58.48 121.377 57.84C122.897 56.56 124.817 54.24 127.217 51.12C127.457 50.8 127.377 50.24 127.057 50C126.657 49.76 126.177 49.84 125.937 50.16C119.857 58.32 118.497 57.76 118.417 57.76C118.177 57.6 117.697 56.64 118.257 53.28C118.577 51.12 119.137 48.96 119.217 48.88C119.297 48.48 119.057 48.08 118.657 47.92C118.257 47.84 117.777 48.08 117.697 48.48C117.617 48.56 117.057 50.72 116.657 53.04C116.177 56.64 116.497 58.56 117.697 59.12ZM119.377 45.44C119.537 45.44 119.777 45.36 119.937 45.2C120.097 45.04 120.177 44.88 120.177 44.64C120.177 44.48 120.097 44.24 119.937 44.08C119.777 43.92 119.537 43.84 119.377 43.84C119.137 43.84 118.977 43.92 118.817 44.08C118.657 44.24 118.577 44.48 118.577 44.64C118.577 44.88 118.657 45.04 118.817 45.2C118.977 45.36 119.137 45.44 119.377 45.44ZM143.807 50C143.487 49.76 143.007 49.92 142.767 50.24C139.007 57.36 137.647 57.28 137.487 57.28C137.487 57.28 137.167 57.2 136.767 55.84C136.447 54.88 136.287 53.52 136.127 52.24C135.727 49.28 135.407 47.2 133.967 47.04C131.567 46.72 129.407 51.52 127.007 57.2C126.927 57.52 126.767 57.84 126.687 58.16C126.607 57.12 126.767 55.2 127.247 51.84C127.807 48.4 128.527 45.12 128.527 45.12C128.607 44.64 128.367 44.24 127.967 44.16C127.487 44.08 127.087 44.32 127.007 44.72C127.007 44.8 126.287 48.16 125.727 51.68C124.527 59.04 125.327 60 125.647 60.4C125.887 60.64 126.207 60.8 126.607 60.8C127.167 60.8 127.407 60.32 127.727 59.68C127.887 59.2 128.127 58.56 128.447 57.84C129.247 56 130.207 53.52 131.327 51.6C132.687 48.96 133.487 48.64 133.727 48.56C134.127 49.04 134.367 51.04 134.527 52.4C135.007 55.52 135.407 58.48 137.247 58.8C138.447 59.04 140.207 58.32 144.127 51.04C144.367 50.64 144.207 50.16 143.807 50ZM156.2 51.04C156.44 50.72 156.28 50.24 155.96 50C155.56 49.76 155.08 49.84 154.84 50.24C154.84 50.32 150.2 57.28 145.96 57.28C145.08 57.28 144.6 56.88 144.2 56C143.8 54.88 143.8 53.2 144.2 51.52C146.2 51.52 148.2 49.68 148.84 48.08C149.32 46.72 148.92 45.6 147.88 45.12C147.4 44.88 146.36 44.64 145.32 45.68C143.16 47.68 141.56 53.44 142.76 56.64C143.32 58 144.44 58.8 145.96 58.8C151.08 58.8 155.96 51.36 156.2 51.04ZM146.36 46.8C146.68 46.56 146.84 46.48 147 46.48C147.08 46.48 147.16 46.48 147.16 46.48C147.32 46.56 147.64 46.72 147.32 47.52C146.92 48.56 145.72 49.68 144.6 49.92C145.08 48.56 145.72 47.44 146.36 46.8ZM206.727 46.16C204.887 44.56 202.407 43.36 199.447 42.64C201.207 41.28 202.967 39.76 204.567 37.92C209.047 32.72 210.727 27.04 209.607 20.8C209.127 18 207.127 15.92 203.687 14.8C200.807 13.76 196.967 13.6 192.887 14.16C192.087 14.32 191.287 14.4 190.487 14.64C190.647 14.16 190.727 13.6 190.887 13.2C190.967 12.72 190.727 12.32 190.327 12.24C189.927 12.08 189.447 12.4 189.367 12.8C189.367 12.8 189.127 13.6 188.807 15.04C184.727 16.16 181.047 18 178.167 20.4C173.687 24.16 171.607 28.88 172.247 34.16C172.327 34.56 172.727 34.88 173.127 34.8C173.527 34.72 173.847 34.4 173.847 33.92C172.807 25.52 179.847 19.44 188.407 16.8C187.047 22.16 184.567 32.16 182.007 42.64C178.327 43.52 175.607 45.84 175.767 48C175.847 48.72 176.327 50.32 179.607 50.48C179.767 50.48 179.927 50.48 180.167 50.48C178.247 58.32 176.727 64.72 175.687 69.44C175.047 72.08 174.567 74.24 174.247 75.84C173.527 75.76 172.727 75.52 172.007 75.36C171.607 75.28 171.207 75.52 171.047 75.92C170.967 76.32 171.207 76.72 171.607 76.88C172.407 77.04 173.127 77.28 173.927 77.36C173.767 78.24 173.607 78.88 173.527 79.36C173.447 80 173.287 80.8 174.087 81.04C174.167 81.04 174.247 81.04 174.327 81.04C174.887 81.04 175.127 80.4 175.207 80.16C175.367 79.84 175.527 79.36 175.687 78.72C175.847 78.4 175.687 78.08 175.367 77.84C175.447 77.76 175.447 77.76 175.447 77.68C177.207 77.92 178.967 78 180.727 78C188.167 78 195.767 75.84 201.367 71.92C206.887 68.08 210.087 62.8 210.567 56.72C210.967 52.24 209.607 48.64 206.727 46.16ZM190.087 16.32C191.127 16.08 192.087 15.84 193.127 15.68C199.687 14.72 207.207 16 208.087 21.12C209.127 26.8 207.527 32.08 203.367 36.88C201.607 38.96 199.527 40.72 197.367 42.24C196.167 42 194.887 41.92 193.607 41.84C189.927 41.6 186.247 41.92 183.687 42.32C185.847 33.52 188.087 24.4 190.087 16.32ZM183.287 44C185.207 43.68 188.087 43.28 191.207 43.28C192.567 43.28 193.927 43.36 195.367 43.52C190.647 46.4 185.607 48.08 182.167 48.64C182.567 47.12 182.967 45.6 183.287 44ZM179.607 48.88C178.247 48.88 177.367 48.48 177.367 47.84C177.287 46.96 178.727 45.28 181.607 44.4C181.447 45.04 181.287 45.68 181.127 46.32C180.967 47.2 180.727 48 180.567 48.88C180.247 48.88 179.927 48.88 179.607 48.88ZM209.047 56.64C208.567 62.16 205.607 67.04 200.487 70.64C193.847 75.28 184.327 77.36 175.767 76.16C176.887 70.88 179.127 61.28 181.767 50.32C184.487 49.92 187.927 48.88 191.287 47.36C193.127 46.56 195.367 45.36 197.687 43.84C200.727 44.4 203.527 45.52 205.687 47.28C208.247 49.52 209.367 52.64 209.047 56.64ZM230.752 50.32C230.512 49.92 230.032 49.76 229.712 49.92C226.352 51.68 223.872 52.08 222.192 52C222.192 50.32 221.792 48.8 221.072 47.92C220.352 47.04 219.312 46.8 218.192 47.28C217.312 47.6 216.752 48.4 216.672 49.28C216.672 49.6 216.672 49.92 216.752 50.24L216.672 50.32C216.512 50.72 214.912 54.08 215.872 56.24C216.272 57.04 216.912 57.6 217.792 57.84C218.032 57.92 218.352 58 218.592 58C219.632 58 220.432 57.44 221.072 56.48C221.632 55.68 221.952 54.64 222.112 53.6C224.032 53.68 226.752 53.2 230.352 51.36C230.752 51.12 230.912 50.72 230.752 50.32ZM219.792 55.68C219.232 56.56 218.592 56.48 218.192 56.32C217.792 56.24 217.472 56 217.312 55.6C216.912 54.64 217.312 53.04 217.712 51.92C217.952 52.08 218.192 52.32 218.432 52.48C218.832 52.72 219.552 53.12 220.512 53.36C220.432 54.24 220.192 55.04 219.792 55.68ZM219.312 51.2C218.432 50.56 218.192 49.92 218.192 49.44C218.272 49.12 218.512 48.8 218.832 48.64C218.992 48.64 219.152 48.56 219.312 48.56C219.472 48.56 219.632 48.64 219.872 48.88C220.272 49.44 220.592 50.56 220.592 51.76C219.952 51.6 219.552 51.36 219.312 51.2ZM248.843 50C248.523 49.76 248.043 49.84 247.723 50.16C241.723 58.24 239.643 58.24 239.163 58C238.843 57.84 237.963 57.12 238.123 52.8C238.283 50.32 238.763 48 238.763 47.92C238.843 47.52 238.603 47.2 238.203 47.04C237.883 46.96 237.483 47.12 237.243 47.44C235.083 51.76 231.803 56.4 230.363 56.4C230.203 56.4 230.203 56.4 230.203 56.32C229.562 55.52 230.443 51.84 231.483 48.96C231.643 48.56 231.483 48.08 231.083 48C230.683 47.84 230.203 48 230.043 48.4C229.643 49.52 227.562 55.28 228.922 57.2C229.242 57.68 229.723 58 230.363 58C231.323 58 232.923 57.44 235.883 52.96C236.123 52.48 236.443 52.08 236.683 51.68C236.603 52 236.603 52.4 236.603 52.72C236.363 56.56 237.003 58.72 238.523 59.44C238.843 59.52 239.163 59.6 239.483 59.6C241.643 59.6 244.683 56.88 249.003 51.12C249.243 50.8 249.163 50.32 248.843 50ZM259.284 49.92C256.084 50.72 255.284 49.76 254.564 48.88C254.164 48.32 253.524 47.68 252.404 47.68C251.604 47.68 250.644 48.24 249.124 51.92L249.844 46.72C249.844 46.24 249.524 45.84 249.124 45.84C248.724 45.76 248.324 46.08 248.244 46.48L246.644 59.36C246.564 59.76 246.884 60.16 247.284 60.24C247.284 60.24 247.364 60.24 247.444 60.24C247.764 60.24 248.084 60 248.164 59.68C248.164 59.6 248.884 57.12 249.844 54.48C251.444 49.92 252.324 49.28 252.484 49.2C252.804 49.2 252.964 49.36 253.364 49.92C254.244 50.88 255.444 52.4 259.604 51.44C260.084 51.28 260.324 50.88 260.244 50.48C260.084 50.08 259.684 49.76 259.284 49.92Z" fill="#414144"/>
<line x1="223.527" y1="35.837" x2="233.527" y2="6.837" stroke="#414144"/>
<path d="M236.5 38L269.5 1M259 38L283.5 20.5" stroke="#414144"/>
<line x1="39.7329" y1="57.1669" x2="1.17653" y2="78.2241" stroke="#414144"/>
<line x1="37.168" y1="49.8376" x2="4.51438" y2="52.4338" stroke="#414144"/>
<line x1="42.438" y1="65.4385" x2="26.1681" y2="88.4448" stroke="#414144"/>
</svg>
