<svg width="263" height="62" viewBox="0 0 263 62" fill="none" xmlns="http://www.w3.org/2000/svg">
<path d="M11.8802 37.9997V60.2397H0.200195V1.75973H21.4802C24.4135 1.75973 27.1069 2.21306 29.5602 3.11973C32.0135 4.0264 34.1202 5.3064 35.8802 6.95973C37.6402 8.55973 39.0002 10.4797 39.9602 12.7197C40.9202 14.9597 41.4002 17.4131 41.4002 20.0797C41.4002 22.3731 40.8135 24.6131 39.6402 26.7997C38.4669 28.9331 36.8669 30.8531 34.8402 32.5597C32.8669 34.2131 30.5735 35.5464 27.9602 36.5597C25.4002 37.5197 22.7069 37.9997 19.8802 37.9997H11.8802ZM14.1202 36.2397C16.0402 36.2397 17.9335 35.9464 19.8002 35.3597C21.7202 34.7731 23.4002 33.8931 24.8402 32.7197C26.3335 31.4931 27.5335 29.9731 28.4402 28.1597C29.3469 26.3464 29.8002 24.2397 29.8002 21.8397C29.8002 19.7064 29.4002 17.5464 28.6002 15.3597C27.8535 13.1731 26.7335 11.1997 25.2402 9.43973C23.7469 7.6264 21.8802 6.15973 19.6402 5.03973C17.4002 3.91973 14.8135 3.35973 11.8802 3.35973V36.2397H14.1202Z" fill="#464130"/>
<path d="M69.5052 41.4397C68.3852 40.0531 66.9985 38.8264 65.3452 37.7597C63.7452 36.6397 62.0919 35.7597 60.3852 35.1197C58.7319 34.4264 57.1585 33.9997 55.6652 33.8397C54.1719 33.6797 52.9719 33.8931 52.0652 34.4797C51.1585 35.0664 50.5719 36.0264 50.3052 37.3597C50.0919 38.6397 50.1452 40.0531 50.4652 41.5997C50.8385 43.1464 51.4519 44.7464 52.3052 46.3997C53.2119 47.9997 54.3319 49.4131 55.6652 50.6397C56.7319 51.5997 57.9052 52.3997 59.1852 53.0397C60.4652 53.6797 61.7185 54.1331 62.9452 54.3997C64.2252 54.6664 65.4252 54.7731 66.5452 54.7197C67.7185 54.6131 68.7052 54.3197 69.5052 53.8397V41.4397ZM69.5052 26.5597C69.5052 24.1597 69.2385 22.3731 68.7052 21.1997C68.1719 19.9731 67.4785 19.2264 66.6252 18.9597C65.7719 18.6397 64.7852 18.7197 63.6652 19.1997C62.5452 19.6797 61.3985 20.4531 60.2252 21.5197C59.0519 22.5331 57.9052 23.7597 56.7852 25.1997C55.6652 26.6397 54.6519 28.1597 53.7452 29.7597L47.5052 23.9197C49.4785 21.9997 51.6652 20.5331 54.0652 19.5197C56.5185 18.4531 58.9719 17.8131 61.4252 17.5997C63.9319 17.3864 66.3585 17.5464 68.7052 18.0797C71.1052 18.6131 73.2119 19.4931 75.0252 20.7197C76.8919 21.9464 78.3852 23.4931 79.5052 25.3597C80.6252 27.1731 81.1852 29.2797 81.1852 31.6797V59.9997H69.5052V55.1197C68.5985 56.8264 67.0785 58.2397 64.9452 59.3597C62.8119 60.4797 60.3052 61.0664 57.4252 61.1197C55.2385 61.1731 53.2385 60.8531 51.4252 60.1597C49.6119 59.5197 48.0652 58.6131 46.7852 57.4397C45.5052 56.2131 44.5185 54.7464 43.8252 53.0397C43.1319 51.2797 42.8385 49.3597 42.9452 47.2797C43.0519 45.3064 43.4785 43.4397 44.2252 41.6797C44.9719 39.9197 45.9585 38.3464 47.1852 36.9597C48.4652 35.5197 49.9319 34.3464 51.5852 33.4397C53.2919 32.5331 55.1052 31.9464 57.0252 31.6797C58.9985 31.3597 61.1052 31.3864 63.3452 31.7597C65.5852 32.1331 67.6385 32.6931 69.5052 33.4397V26.5597Z" fill="#464130"/>
<path d="M114.92 17.1997C116.307 17.6797 117.694 18.0797 119.08 18.3997C120.254 18.7197 121.507 19.0131 122.84 19.2797C124.227 19.5464 125.48 19.6797 126.6 19.6797V59.9997H114.92V52.1597C114.6 53.4931 113.987 54.7464 113.08 55.9197C112.227 57.0931 111.187 58.1331 109.96 59.0397C108.734 59.8931 107.374 60.5864 105.88 61.1197C104.387 61.6531 102.84 61.9464 101.24 61.9997C99.4802 62.0531 97.8535 61.8397 96.3602 61.3597C94.9202 60.8797 93.6669 60.1331 92.6002 59.1197C91.5335 58.0531 90.6802 56.7197 90.0402 55.1197C89.4535 53.5197 89.1602 51.6531 89.1602 49.5197V17.1997C90.5469 17.6797 91.9069 18.0797 93.2402 18.3997C94.4669 18.7197 95.7469 19.0131 97.0802 19.2797C98.4135 19.5464 99.6669 19.6797 100.84 19.6797V48.5597C100.84 50.1597 101.134 51.4397 101.72 52.3997C102.307 53.3597 103.054 54.0531 103.96 54.4797C104.92 54.8531 105.934 55.0131 107 54.9597C108.12 54.9064 109.187 54.6931 110.2 54.3197C111.267 53.9464 112.227 53.4664 113.08 52.8797C113.934 52.2397 114.547 51.5464 114.92 50.7997V17.1997Z" fill="#464130"/>
<path d="M147.498 59.9997H135.818V5.67973C136.991 5.67973 138.244 5.41306 139.578 4.87973C140.911 4.34639 142.164 3.78639 143.338 3.19973C144.724 2.45306 146.111 1.62639 147.498 0.719727V59.9997Z" fill="#464130"/>
<path d="M162.424 13.6797C160.557 13.6797 159.011 13.0931 157.784 11.9197C156.611 10.7464 156.024 9.19973 156.024 7.27973C156.024 5.35973 156.611 3.81306 157.784 2.63973C159.011 1.4664 160.557 0.879729 162.424 0.879729C164.397 0.879729 165.971 1.4664 167.144 2.63973C168.317 3.81306 168.904 5.35973 168.904 7.27973C168.904 9.19973 168.317 10.7464 167.144 11.9197C165.971 13.0931 164.397 13.6797 162.424 13.6797ZM168.424 59.9997H156.744V19.8397C158.504 19.8397 160.104 19.7064 161.544 19.4397C162.984 19.1731 164.211 18.8797 165.224 18.5597C166.397 18.2397 167.464 17.8397 168.424 17.3597V59.9997Z" fill="#464130"/>
<path d="M188.809 59.9997H177.129V22.3197C178.302 22.3197 179.556 22.0531 180.889 21.5197C182.222 20.9864 183.476 20.4264 184.649 19.8397C186.036 19.0931 187.422 18.2664 188.809 17.3597V27.2797C189.182 25.9464 189.849 24.6931 190.809 23.5197C191.822 22.3464 192.969 21.3331 194.249 20.4797C195.582 19.5731 197.022 18.8531 198.569 18.3197C200.169 17.7864 201.769 17.4931 203.369 17.4397C205.076 17.3864 206.649 17.5997 208.089 18.0797C209.582 18.5597 210.862 19.3331 211.929 20.3997C212.996 21.4131 213.822 22.7197 214.409 24.3197C215.049 25.9197 215.369 27.7864 215.369 29.9197V59.9997H203.769V31.7597C203.769 29.3064 203.102 27.5731 201.769 26.5597C200.436 25.4931 198.889 24.9597 197.129 24.9597C195.422 24.9064 193.742 25.2531 192.089 25.9997C190.489 26.7464 189.396 27.6531 188.809 28.7197V59.9997Z" fill="#464130"/>
<path d="M234.653 42.9597C234.92 43.3331 235.187 43.7064 235.453 44.0797C235.72 44.4531 235.987 44.7997 236.253 45.1197C238.12 43.6797 239.587 42.0264 240.653 40.1597C241.72 38.2931 242.44 36.3997 242.813 34.4797C243.187 32.5597 243.267 30.6931 243.053 28.8797C242.893 27.0131 242.52 25.3864 241.933 23.9997C241.4 22.6131 240.68 21.5197 239.773 20.7197C238.867 19.9197 237.907 19.5731 236.893 19.6797C235.293 19.8397 233.987 20.7464 232.973 22.3997C232.013 24.0531 231.427 26.0531 231.213 28.3997C231 30.6931 231.16 33.1464 231.693 35.7597C232.227 38.3731 233.213 40.7731 234.653 42.9597ZM236.253 45.1197C238.227 47.5197 240.387 49.2797 242.733 50.3997C245.133 51.5197 247.507 52.1864 249.853 52.3997C252.2 52.5597 254.44 52.3464 256.573 51.7597C258.76 51.1731 260.627 50.3197 262.173 49.1997C260.147 53.3064 257.533 56.2664 254.333 58.0797C251.133 59.8931 247.373 60.7997 243.053 60.7997C240.173 60.7997 237.453 60.2131 234.893 59.0397C232.333 57.8664 230.093 56.2931 228.173 54.3197C226.253 52.3464 224.733 50.0531 223.613 47.4397C222.493 44.8264 221.933 42.0797 221.933 39.1997C221.933 36.1597 222.467 33.3331 223.533 30.7197C224.6 28.0531 226.067 25.7331 227.933 23.7597C229.8 21.7864 231.987 20.2397 234.493 19.1197C237.053 17.9997 239.773 17.4397 242.653 17.4397C244.307 17.4397 245.933 17.7864 247.533 18.4797C249.187 19.1731 250.653 20.1064 251.933 21.2797C253.213 22.3997 254.227 23.7064 254.973 25.1997C255.773 26.6931 256.173 28.2397 256.173 29.8397C256.12 32.2931 255.373 34.4531 253.933 36.3197C252.547 38.1331 250.84 39.6797 248.813 40.9597C246.787 42.1864 244.627 43.1464 242.333 43.8397C240.04 44.5331 238.013 44.9597 236.253 45.1197Z" fill="#464130"/>
</svg>
