<svg width="1920" height="95" viewBox="0 0 1920 95" fill="none" xmlns="http://www.w3.org/2000/svg">
<path d="M1920 53.2005L1888 52.7804C1856 52.2204 1792 51.3804 1728 58.3805C1664 65.3806 1600 80.2207 1536 80.2207C1472 80.2207 1408 65.3806 1344 55.5805C1280 45.7804 1216 41.0203 1152 44.3804C1088 47.6004 1024 58.8005 960 63.7005C896 68.6006 832 67.2006 768 73.2206C704 79.3807 640 92.8208 576 94.7808C512 96.6008 448 86.8007 384 76.0206C320 65.3806 256 53.6205 192 47.8804C128 42.0004 64 42.0004 32 42.0004L0 42.0004V-2.50474e-06L32 -2.50474e-06C64 -2.50474e-06 128 -2.50474e-06 192 -2.50474e-06C256 -2.50474e-06 320 -2.50474e-06 384 -2.50474e-06C448 -2.50474e-06 512 -2.50474e-06 576 -2.50474e-06C640 -2.50474e-06 704 -2.50474e-06 768 -2.50474e-06C832 -2.50474e-06 896 -2.50474e-06 960 -2.50474e-06C1024 -2.50474e-06 1088 -2.50474e-06 1152 -2.50474e-06C1216 -2.50474e-06 1280 -2.50474e-06 1344 -2.50474e-06C1408 -2.50474e-06 1472 -2.50474e-06 1536 -2.50474e-06C1600 -2.50474e-06 1664 -2.50474e-06 1728 -2.50474e-06C1792 -2.50474e-06 1856 -2.50474e-06 1888 -2.50474e-06H1920V53.2005Z" fill="#A4BBA9"/>
</svg>
